<svg xmlns="http://www.w3.org/2000/svg" width="1024" height="1024" viewBox="0 0 1024 1024">
  <defs>
    <linearGradient id="bg" x1="100" y1="100" x2="924" y2="924" gradientUnits="userSpaceOnUse">
      <stop offset="0%" stop-color="#1a1a2e"/>
      <stop offset="100%" stop-color="#16213e"/>
    </linearGradient>
    <!-- Blue stream -->
    <linearGradient id="s1" x1="203" y1="203" x2="512" y2="512" gradientUnits="userSpaceOnUse">
      <stop offset="0%" stop-color="#60a5fa" stop-opacity="0.9"/>
      <stop offset="100%" stop-color="#3b82f6"/>
    </linearGradient>
    <!-- Green stream -->
    <linearGradient id="s2" x1="821" y1="203" x2="512" y2="512" gradientUnits="userSpaceOnUse">
      <stop offset="0%" stop-color="#4ade80" stop-opacity="0.9"/>
      <stop offset="100%" stop-color="#22c55e"/>
    </linearGradient>
    <!-- Purple stream -->
    <linearGradient id="s3" x1="512" y1="821" x2="512" y2="512" gradientUnits="userSpaceOnUse">
      <stop offset="0%" stop-color="#c084fc" stop-opacity="0.9"/>
      <stop offset="100%" stop-color="#a855f7"/>
    </linearGradient>
    <!-- Center glow -->
    <radialGradient id="glow" cx="512" cy="512" r="124" gradientUnits="userSpaceOnUse">
      <stop offset="0%" stop-color="#ffffff" stop-opacity="0.9"/>
      <stop offset="60%" stop-color="#e0e7ff" stop-opacity="0.4"/>
      <stop offset="100%" stop-color="#e0e7ff" stop-opacity="0"/>
    </radialGradient>
    <!-- Drop shadow per Apple HIG: 28px blur, 12px Y offset -->
    <filter id="shadow" x="-5%" y="-5%" width="110%" height="115%">
      <feDropShadow dx="0" dy="12" stdDeviation="14" flood-color="#000000" flood-opacity="0.3"/>
    </filter>
  </defs>

  <!-- Background: 824×824 centered on 1024×1024 canvas, rx=185.4 per Apple HIG -->
  <rect x="100" y="100" width="824" height="824" rx="185.4" fill="url(#bg)" filter="url(#shadow)"/>

  <!-- Three streams converging to center -->
  <!-- Blue: top → center -->
  <path d="M512 203 Q491 326 502 409 Q512 471 512 512" stroke="url(#s1)" stroke-width="52" stroke-linecap="round" fill="none"/>
  <!-- Green: bottom-right → center -->
  <path d="M780 666 Q677 635 615 573 Q554 533 512 512" stroke="url(#s2)" stroke-width="52" stroke-linecap="round" fill="none"/>
  <!-- Purple: bottom-left → center -->
  <path d="M244 666 Q347 635 409 573 Q471 533 512 512" stroke="url(#s3)" stroke-width="52" stroke-linecap="round" fill="none"/>

  <!-- Center convergence point -->
  <circle cx="512" cy="512" r="103" fill="url(#glow)"/>
  <circle cx="512" cy="512" r="41" fill="#ffffff" opacity="0.95"/>
</svg>
