<svg xmlns="http://www.w3.org/2000/svg" width="1024" height="1024" viewBox="0 0 80 80">
  <defs>
    <linearGradient id="bg" x1="0" y1="0" x2="80" y2="80" gradientUnits="userSpaceOnUse">
      <stop offset="0%" stop-color="#1a1a2e"/>
      <stop offset="100%" stop-color="#16213e"/>
    </linearGradient>
    <!-- Blue stream (top-left) -->
    <linearGradient id="s1" x1="10" y1="10" x2="40" y2="40" gradientUnits="userSpaceOnUse">
      <stop offset="0%" stop-color="#60a5fa" stop-opacity="0.9"/>
      <stop offset="100%" stop-color="#3b82f6"/>
    </linearGradient>
    <!-- Green stream (top-right) -->
    <linearGradient id="s2" x1="70" y1="10" x2="40" y2="40" gradientUnits="userSpaceOnUse">
      <stop offset="0%" stop-color="#4ade80" stop-opacity="0.9"/>
      <stop offset="100%" stop-color="#22c55e"/>
    </linearGradient>
    <!-- Purple stream (bottom) -->
    <linearGradient id="s3" x1="40" y1="70" x2="40" y2="40" gradientUnits="userSpaceOnUse">
      <stop offset="0%" stop-color="#c084fc" stop-opacity="0.9"/>
      <stop offset="100%" stop-color="#a855f7"/>
    </linearGradient>
    <!-- Center glow -->
    <radialGradient id="glow" cx="40" cy="40" r="12" gradientUnits="userSpaceOnUse">
      <stop offset="0%" stop-color="#ffffff" stop-opacity="0.9"/>
      <stop offset="60%" stop-color="#e0e7ff" stop-opacity="0.4"/>
      <stop offset="100%" stop-color="#e0e7ff" stop-opacity="0"/>
    </radialGradient>
  </defs>

  <!-- Background -->
  <rect width="80" height="80" rx="18" fill="url(#bg)"/>

  <!-- Three streams converging to center -->
  <!-- Three streams at 120° intervals converging to center -->
  <!-- Blue: top → center -->
  <path d="M40 10 Q38 22 39 30 Q40 36 40 40" stroke="url(#s1)" stroke-width="5" stroke-linecap="round" fill="none"/>
  <!-- Green: bottom-right → center -->
  <path d="M66 55 Q56 52 50 46 Q44 42 40 40" stroke="url(#s2)" stroke-width="5" stroke-linecap="round" fill="none"/>
  <!-- Purple: bottom-left → center -->
  <path d="M14 55 Q24 52 30 46 Q36 42 40 40" stroke="url(#s3)" stroke-width="5" stroke-linecap="round" fill="none"/>

  <!-- Center convergence point -->
  <circle cx="40" cy="40" r="10" fill="url(#glow)"/>
  <circle cx="40" cy="40" r="4" fill="#ffffff" opacity="0.95"/>
</svg>
